<svg width="25" height="26" viewBox="0 0 25 26" fill="none" xmlns="http://www.w3.org/2000/svg">
<path d="M6.17007 18.9417L6.6138 18.7113L6.17007 18.9418C6.43368 19.4494 7.05891 19.6472 7.56655 19.3836L10.7523 17.7292C11.2032 17.4951 11.6155 17.1931 11.9748 16.8338L19.6896 9.11905C20.5822 8.22643 20.5822 6.77919 19.6896 5.88656C18.797 4.99394 17.3497 4.99394 16.4571 5.88656L8.69916 13.6445C8.41805 13.9256 8.17963 14.2464 7.99149 14.5966L6.17685 17.9743C6.01484 18.2758 6.01231 18.638 6.17007 18.9417ZM5.35714 1H19.6429C22.3254 1 24.5 3.17462 24.5 5.85714V20.1429C24.5 22.8254 22.3254 25 19.6429 25H5.35714C2.67462 25 0.5 22.8254 0.5 20.1429V5.85714C0.5 3.17462 2.67462 1 5.35714 1Z" fill="white" stroke="#5397F5"/>
</svg>
